<svg viewBox="0 0 1029 1024" xmlns="http://www.w3.org/2000/svg" width="32" height="32"><path d="M2.273 512.962C2.185 230.86 231.363 1.7 513.377 1.894c281.922.194 510.645 228.952 510.729 510.803.084 282.121-228.961 511.122-511.126 511.034-281.874-.093-510.623-228.864-510.707-510.769Zm63.797-.3c-.154 246.634 200.192 447.064 447.09 447.276 246.379.212 446.663-199.94 446.889-446.596.23-247.124-199.27-447.025-446.535-447.435C266.867 65.497 66.22 265.83 66.07 512.662Zm639.669-95.559c-1.695 79.775-49.505 149.032-123.617 177.885-6.347 2.472-12.676 5.072-18.759 8.122-11.617 5.83-17.836 15.315-18.26 28.482-.176 5.486.058 11.127-1.138 16.415-3.496 15.443-18.265 25.984-33.245 24.381-16.91-1.81-28.707-14.481-29.347-31.165-1.735-45.008 17.028-77.78 57.913-97.382 5.54-2.653 11.158-5.208 16.931-7.287 55.46-19.972 90.187-74.77 84.035-132.789-6.184-58.293-52.163-105.737-109.864-113.289-75.52-9.887-142.424 47.051-144.927 123.1-.137 4.163-.327 8.458-1.435 12.426-4.22 15.1-19.447 24.99-34.445 22.766-16.53-2.45-28.19-15.545-27.983-32.525.574-46.98 15.302-89.199 46.724-124.17C419.955 234.62 484.86 212.83 559.7 231.752c75.564 19.103 122.377 69.495 140.623 145.474 3.116 12.976 3.677 26.57 5.416 39.878Zm-224.34 367.37c0-5.73-.141-11.463.031-17.188.516-17.329 14.3-30.777 31.501-30.879 17.179-.097 31.453 13.18 32.062 30.38.406 11.445.353 22.921.031 34.37-.494 17.598-14.72 30.994-32.256 30.826-17.262-.167-30.848-13.546-31.347-30.984-.159-5.504-.026-11.017-.022-16.526Z"/></svg>